<?xml version="1.0" encoding="UTF-8"?><svg id="Laag_1" xmlns="http://www.w3.org/2000/svg" viewBox="0 0 411.02 107.72"><defs><style>.cls-1{fill:#007880;}.cls-2{fill:#e73331;}</style></defs><path class="cls-2" d="m27.68,24.72h0c-6.5,0-11.45,2.66-14.76,6.95-1.37-3.44-4.73-5.87-8.67-5.87h0v55.98s9.33,0,9.33,0h0s.1-33.73.1-33.73c0-7.73,6.27-14,14-14h0c7.73,0,14,6.27,14,14l-.1,33.73h9.33s.1-33.73.1-33.73c0-12.88-10.44-23.33-23.33-23.33Z"/><path class="cls-2" d="m75.49,72.45v9.33h-5.41c-2.58,0-4.91-1.05-6.6-2.73-1.68-1.69-2.73-4.02-2.73-6.6V12.82c0-2.58,1.05-4.91,2.73-6.6,1.69-1.68,4.02-2.73,6.6-2.73v67.23c0,.96.77,1.73,1.73,1.73h3.68Z"/><rect class="cls-2" x="83.25" y="34.73" width="9.33" height="46.96"/><path class="cls-2" d="m83.25,13.1v12.62h0c5.15,0,9.33-4.18,9.33-9.33v-3.29s-9.33,0-9.33,0Z"/><path class="cls-1" d="m325.94,73.15c-5.15,0-9.33-4.18-9.33-9.33v-29.31s14.65,0,14.65,0v-8.01s-34.09,0-34.09,0v8.01s10.1,0,10.1,0v29.31c0,10.31,8.35,18.66,18.66,18.66h5.98s0-9.33,0-9.33h-5.98Z"/><path class="cls-1" d="m316.61,16.08v-2.56s-9.33,0-9.33,0v11.89s0,0,0,0c5.15,0,9.33-4.18,9.33-9.33Z"/><path class="cls-1" d="m165.2,34.97c-4.3-6.92-11.37-10.49-21.16-10.49h0c-13.03,0-23.69,10.66-23.69,23.69v7.28c0,14.18,10.11,26.33,26.04,26.33,7.42,0,15.54-4.43,19.23-10.7l-7.21-4.84c-2.47,3.21-7.72,6.57-13.16,6.57-8.87,0-15.95-7.29-15.95-15.02l-.27-8.01v-1.32c0-7.73,6.13-15.71,15.02-15.71h0c7.54,0,10.76,2.37,13.52,6.22"/><path class="cls-1" d="m406.77,72.19v9.33h-5.41c-2.58,0-4.91-1.05-6.6-2.73-1.68-1.69-2.73-4.02-2.73-6.6V12.56c0-2.58,1.05-4.91,2.73-6.6,1.69-1.68,4.02-2.73,6.6-2.73v67.23c0,.96.77,1.73,1.73,1.73h3.68Z"/><rect class="cls-1" x="282.16" y="34.6" width="9.33" height="46.96"/><path class="cls-1" d="m282.16,12.98h9.33v3.29c0,5.15-4.18,9.33-9.33,9.33h0v-12.62h0Z"/><path class="cls-1" d="m216.05,42.81c-.15-5.66-2.18-10.18-6.04-13.42-3.85-3.23-8.22-4.91-14.98-4.91-4.26,0-7.83.77-11.39,2.28-3.57,1.52-6.44,3.61-8.53,6.21-1.63,2.03-2.63,4.15-3,6.32,2.98.55,6.44,1.23,9.85,1.92v-.02c0-2.3,1.12-4.22,3.43-5.86,2.31-1.64,6.01-2.47,9.45-2.47,3.91,0,6.9.95,8.88,2.82,1.98,1.87,2.99,4.43,2.99,7.6v3.94h-9.24c-8.38,0-14.99,1.63-19.64,4.84-4.69,3.24-7.06,7.85-7.06,13.7,0,4.82,1.9,8.86,5.64,12,3.73,3.13,8.56,4.71,14.36,4.71,6.21,0,11.67-2.54,16.22-6.77v5.81h9.08s0-13.31,0-13.31v-25.41Zm-9.35,22.72c-1.21,2.33-4.36,4.65-7.04,6.11-2.71,1.49-5.62,2.24-8.65,2.24s-5.74-.81-7.73-2.41c-1.97-1.58-2.97-3.81-2.97-6.64,0-6.47,7.18-10.15,19.01-10.15h7.37v10.84Z"/><path class="cls-1" d="m382.16,42.81c-.15-5.66-2.18-10.18-6.04-13.42-3.85-3.23-8.22-4.91-14.98-4.91-4.26,0-7.83.77-11.39,2.28-3.57,1.52-6.44,3.61-8.53,6.21-1.63,2.03-2.63,4.15-3,6.32,2.98.55,6.44,1.23,9.85,1.92v-.02c0-2.3,1.12-4.22,3.43-5.86,2.31-1.64,6.01-2.47,9.45-2.47,3.91,0,6.9.95,8.88,2.82,1.98,1.87,2.99,4.43,2.99,7.6v3.94h-9.24c-8.38,0-14.99,1.63-19.64,4.84-4.69,3.24-7.06,7.85-7.06,13.7,0,4.82,1.9,8.86,5.64,12,3.73,3.13,8.56,4.71,14.36,4.71,6.21,0,11.67-2.54,16.22-6.77v5.81h9.08s0-13.31,0-13.31v-25.41Zm-9.35,22.72c-1.21,2.33-4.36,4.65-7.04,6.11-2.71,1.49-5.62,2.24-8.65,2.24s-5.74-.81-7.73-2.41c-1.97-1.58-2.97-3.81-2.97-6.64,0-6.47,7.18-10.15,19.01-10.15h7.37v10.84Z"/><path class="cls-1" d="m249.86,24.63h-.23c-6.12,0-11.61,3.09-15.43,8.24-1.13-3.7-4.57-6.39-8.64-6.39h-.29v78.01h9.33v-29.39c3.78,4.64,9.11,7.23,15.15,7.23h0c13.57,0,22.9-9.92,22.9-25.43v-4.97c0-18.72-8.54-27.29-22.79-27.29Zm13.46,31.06c0,11.4-5,18.29-14.36,18.29h0c-7.93,0-14.36-5.93-14.36-18.29v-4.44c0-11.08,6.43-18.29,14.36-18.29h0c9.1,0,14.36,6.95,14.36,18.29v4.44Z"/></svg>