<svg xmlns="http://www.w3.org/2000/svg" id="Laag_1" viewBox="0 0 566.93 85.04"><defs><style>.cls-1{fill:#e73331;}</style></defs><path class="cls-1" d="m28.09,24.3h0c-6.62,0-11.65,2.66-15.02,6.95-1.4-3.44-4.82-5.87-8.82-5.87h0v55.92h9.5s0,0,0,0h0l.1-33.7c0-7.72,6.38-13.98,14.24-13.98h0c7.87,0,14.24,6.26,14.24,13.98l-.1,33.7h9.5l.1-33.7c0-12.87-10.63-23.3-23.74-23.3Z"></path><path class="cls-1" d="m157.09,24.3h0c-6.62,0-11.65,2.66-15.02,6.95-1.4-3.44-4.82-5.87-8.82-5.87h0v55.92h9.5s0,0,0,0h0l.1-33.7c0-7.72,6.38-13.98,14.24-13.98h0c7.87,0,14.24,6.26,14.24,13.98l-.1,33.7h9.5l.1-33.7c0-12.87-10.63-23.3-23.74-23.3Z"></path><path class="cls-1" d="m77.55,71.97v9.32h-5.51c-2.62,0-5-1.04-6.72-2.73-1.71-1.69-2.78-4.02-2.78-6.6V12.41c0-2.58,1.06-4.9,2.78-6.59,1.72-1.68,4.1-2.73,6.72-2.73v67.16c0,.95.79,1.73,1.76,1.73h3.75Z"></path><path class="cls-1" d="m276.05,66.3c-2.52,3.23-7.86,6.61-13.4,6.61-9.02,0-16.23-7.33-16.23-15.11h.4s38.45,0,38.45,0l.27-4.69v-2.33c0-16.29-11-26.48-24.11-26.48h0c-13.26,0-24.11,10.72-24.11,23.83v7.32c0,14.26,10.29,26.48,26.5,26.48,7.56,0,15.82-4.46,19.57-10.76l-7.34-4.87Zm-29.9-17.88c0-7.77,6.24-15.8,15.28-15.8h0c8.37,0,15.28,8.02,15.28,15.8v1.33h-30.57v-1.33Z"></path><path class="cls-1" d="m419.95,66.32c-2.52,3.23-7.86,6.61-13.4,6.61-9.02,0-16.23-7.33-16.23-15.11h.4s38.45,0,38.45,0l.27-4.69v-2.33c0-16.29-11-26.48-24.11-26.48h0c-13.26,0-24.11,10.72-24.11,23.83v7.32c0,14.26,10.29,26.48,26.5,26.48,7.56,0,15.82-4.46,19.57-10.76l-7.34-4.87Zm-29.9-17.88c0-7.77,6.24-15.8,15.28-15.8h0c8.37,0,15.28,8.02,15.28,15.8v1.33h-30.57v-1.33Z"></path><path class="cls-1" d="m475.46,66.19c-2.52,3.23-7.86,6.61-13.4,6.61-9.02,0-16.23-7.33-16.23-15.11h.4s38.45,0,38.45,0l.27-4.69v-2.33c0-16.29-11-26.48-24.11-26.48h0c-13.26,0-24.11,10.72-24.11,23.83v7.32c0,14.26,10.29,26.48,26.5,26.48,7.56,0,15.82-4.46,19.57-10.76l-7.34-4.87Zm-29.9-17.88c0-7.77,6.24-15.8,15.28-15.8h0c8.37,0,15.28,8.02,15.28,15.8v1.33h-30.57v-1.33Z"></path><path class="cls-1" d="m204.75,81.3l-20.92-55.92h10.51l15.15,41.5,13.67-41.5h11.18l-18.37,51.06c-1.05,2.91-3.85,4.86-7,4.86h-4.21Z"></path><path class="cls-1" d="m329.05,52.53c-2.68-1.43-6.39-2.76-11.02-3.96-4.09-1.06-7.25-2.03-9.39-2.86-2.11-.82-3.57-1.69-4.34-2.58-.76-.88-1.14-1.97-1.14-3.25,0-2.22,1.04-4.02,3.09-5.35,2.08-1.34,4.82-1.97,8.17-1.87,3.5.1,6.42.99,8.68,2.64,1.93,1.42,3.2,3.3,3.77,5.59,3.24-.64,6.51-1.27,9.35-1.79-.49-2.72-1.6-5.16-3.3-7.27-1.95-2.41-4.54-4.3-7.7-5.62-3.16-1.31-6.79-1.98-10.79-1.98s-7.63.67-10.68,2c-3.06,1.33-5.47,3.23-7.17,5.63-1.71,2.4-2.57,5.25-2.57,8.46,0,2.64.58,4.91,1.74,6.75,1.15,1.83,3.1,3.46,5.78,4.83,2.66,1.36,6.36,2.69,10.99,3.96,4.25,1.2,7.48,2.23,9.59,3.06,2.08.82,3.46,1.7,4.11,2.61.65.91.98,2.12.98,3.57,0,2.56-1.01,4.62-3,6.11-2.01,1.5-4.81,2.27-8.31,2.27-3.73,0-6.9-.86-9.41-2.55-2.03-1.36-3.47-3.15-4.32-5.31-3.67.7-7.05,1.32-9.42,1.69,1.13,4.32,3.51,7.78,7.08,10.3,4.03,2.85,9.25,4.29,15.53,4.29s11.81-1.53,15.57-4.55c3.77-3.03,5.68-7.23,5.68-12.5,0-2.84-.58-5.27-1.73-7.22-1.15-1.95-3.1-3.67-5.8-5.11Z"></path><path class="cls-1" d="m370.47,72.07c-5.24,0-9.5-4.17-9.5-9.32v-29.28h14.91v-8h-34.69v8h10.28v29.28c0,10.29,8.5,18.64,18.99,18.64h6.09v-9.32h-6.09Z"></path><path class="cls-1" d="m360.97,15.06v-2.56h-9.5v11.88h0c5.24,0,9.5-4.17,9.5-9.32Z"></path><path class="cls-1" d="m556.59,72.07c-5.24,0-9.5-4.17-9.5-9.32v-29.28h14.91v-8h-34.69v8h10.28v29.28c0,10.29,8.5,18.64,18.99,18.64h6.09v-9.32h-6.09Z"></path><path class="cls-1" d="m547.09,15.06v-2.56h-9.5v11.88h0c5.24,0,9.5-4.17,9.5-9.32Z"></path><rect class="cls-1" x="111.3" y="34.29" width="9.5" height="46.92"></rect><path class="cls-1" d="m111.3,12.68v12.6h0c5.24,0,9.5-4.17,9.5-9.32v-3.28h-9.5Z"></path><path class="cls-1" d="m517.93,24.72h0c-6.45,0-11.4,2.69-14.76,6.95-1.28-3.66-4.82-6.28-8.98-6.28h0v55.92h9.5v-32.62c0-7.72,6.38-14.64,14.24-14.64h0c1.77,0,3.46.33,5.02.91v-9.7c-1.62-.34-3.3-.53-5.02-.53Z"></path></svg>