<?xml version="1.0" encoding="utf-8"?>
<!-- Generator: Adobe Illustrator 21.1.0, SVG Export Plug-In . SVG Version: 6.00 Build 0)  -->
<svg version="1.1" id="Layer_1" xmlns="http://www.w3.org/2000/svg" xmlns:xlink="http://www.w3.org/1999/xlink" x="0px" y="0px"
	 viewBox="0 0 231.6 137.4" style="enable-background:new 0 0 231.6 137.4;" xml:space="preserve">
<style type="text/css">
	.st0{fill:#E2231A;}
</style>
<path class="st0" d="M115.7,49.3L99.5,8.4H82.3l33.3,79.1l33.4-79.1h-17.2L115.7,49.3z M53.6,50.8L5.1,6.3v78.8h17.3V42.2l48.4,44.8
	V8.4H53.6V50.8z M186.1,8.4h-25.4v76.7h17.2V56.4h9.3c15.2,0,27.5-10.6,27.5-25.2C214.6,18.4,205.3,8.4,186.1,8.4 M187.8,41.8h-9.9
	V22.4h9.9c5.4,0,9.7,4.3,9.7,9.7C197.5,37.4,193.1,41.8,187.8,41.8"/>
<path class="st0" d="M116.3,108.2c0-1.7,0.8-2.6,2.3-2.6h0.1v-1c-0.9,0-1.9,0.3-2.4,1.4v-1.2h-1v7.5h1V108.2z M138,104.8h-1v7.5h1
	V104.8z M90.8,111.9c0.6-0.4,1.4-1,1.7-1.8h-1.3c-0.5,1-1.4,1.5-2.6,1.5c-1.3,0-2.9-0.9-2.9-2.8h7c0.1-1.2-0.5-2.4-1.4-3.2
	c-0.7-0.7-1.7-1.1-2.7-1.1c-2.2,0-3.9,1.8-3.9,4c0,1.9,1.4,3.9,4,3.9C89.4,112.5,90.2,112.3,90.8,111.9 M88.7,105.5
	c1.5,0,2.8,1.2,2.9,2.6h-5.8C85.8,106.7,87,105.5,88.7,105.5 M81,111.7c-0.8,0-1.5-0.5-1.6-1.5h-1c0,1.6,1.4,2.3,2.6,2.3
	c1.4,0,2.5-1,2.5-2.4c-0.1-1.6-1.3-1.9-2.3-2.2c-0.9-0.3-1.4-0.6-1.5-1.3c0-0.7,0.5-1.2,1.3-1.2c0.8,0,1.3,0.4,1.3,1.2h1
	c-0.1-1.5-1.2-2.1-2.3-2.1c-1.3,0-2.3,0.8-2.3,2.1c0,1.2,0.9,1.6,1.9,1.9c1.3,0.4,1.9,0.7,1.9,1.6C82.5,111,81.9,111.7,81,111.7
	 M39.4,111.9c0.6-0.4,1.2-1,1.5-1.8h-1.1c-0.5,1-1.4,1.5-2.6,1.5c-1.3,0-2.9-0.9-2.9-2.8h6.8c0.1-1.2-0.3-2.4-1.2-3.2
	c-0.7-0.7-1.7-1.1-2.7-1.1c-2.2,0-3.9,1.8-3.9,4c0,1.9,1.4,3.9,4,3.9C38,112.5,38.8,112.3,39.4,111.9 M37.3,105.5
	c1.5,0,2.8,1.2,2.9,2.6h-5.8C34.5,106.7,35.7,105.5,37.3,105.5 M143.5,112.5c1.4,0,2.5-0.7,3-1.8v1c0,1.9-1.5,3-2.9,3
	c-0.5,0-1.1-0.2-1.7-0.5c-0.4-0.3-0.7-0.7-0.9-1h-1.2c0.5,1.4,1.8,2.4,3.7,2.4c1,0,2.1-0.4,2.8-1.2c0.7-0.6,1.1-1.5,1.1-3v-6.6h-1
	v1.5c-0.4-0.9-1.6-1.8-3-1.8c-2.3,0-3.9,1.7-3.9,4C139.6,110.8,141.2,112.5,143.5,112.5 M140.7,108.6c0-1.8,1.3-3,3-3
	c1.1,0,1.8,0.4,2.3,1c0.5,0.6,0.7,1.3,0.7,2c0,0.8-0.3,1.6-0.8,2.1c-0.5,0.5-1.3,0.9-2.1,0.9C141.7,111.6,140.7,110.1,140.7,108.6
	L140.7,108.6z M66.4,108.3v4.1h1v-4.3c0-1.8-0.8-3.4-3.1-3.4c-1.3,0-2.4,0.6-2.8,1.5c0-0.5,0-0.9,0-1.3h-1v7.5h1v-4.2
	c0-1.6,0.9-2.5,2.4-2.5C65.6,105.6,66.4,106.7,66.4,108.3 M150.7,102h-1v1.4h1V102z M57.3,110.8v1.5h1v-7.5h-1v1.6
	c-0.4-0.8-1.5-1.8-3.1-1.8c-2.3,0-3.9,1.8-3.9,4c0,2.1,1.5,4,3.9,4C55.6,112.5,56.7,111.9,57.3,110.8 M51.4,108.6L51.4,108.6
	c0-1.7,1.3-3,3-3c1.3,0,2.3,0.8,2.7,1.8c0.2,0.4,0.3,0.8,0.2,1.2c0,0.4-0.1,0.8-0.3,1.2c-0.4,1.1-1.4,1.8-2.7,1.8
	C52.3,111.6,51.4,109.9,51.4,108.6 M76.7,112.3V102h-1v4.3c-0.3-0.8-1.4-1.7-3.1-1.7c-2.2,0-3.9,1.7-3.9,3.9c0,2.1,1.5,4,3.9,4
	c1.6,0,2.6-0.8,3.1-1.8v1.5H76.7z M74.9,110.7c-0.5,0.5-1.3,0.9-2.1,0.9c-1.9,0-3-1.5-3-3v0c0-1.7,1.3-3,3-3c0.8,0,1.6,0.3,2.1,0.9
	c0.5,0.5,0.9,1.3,0.9,2.1C75.8,109.4,75.4,110.1,74.9,110.7 M138,102h-1v1.4h1V102z M30.7,106.4c-0.3-0.8-1.4-1.7-3.1-1.7
	c-2.2,0-3.9,1.7-3.9,3.9c0,2.1,1.5,4,3.9,4c1.6,0,2.6-0.8,3.1-1.8v1.5h1V102h-1V106.4z M29.9,110.7c-0.5,0.5-1.3,0.9-2.1,0.9
	c-2,0-3-1.5-3-3v0c0-1.7,1.3-3,3-3c0.8,0,1.6,0.3,2.1,0.9c0.5,0.5,0.9,1.3,0.9,2.1C30.8,109.4,30.5,110.1,29.9,110.7 M131.8,104.6
	c-1.3,0-2.4,0.6-2.8,1.5c0-0.5,0-0.9,0-1.3h-1v7.5h1v-4.2c0-1.6,0.9-2.5,2.4-2.5c1.7,0,2.4,1.1,2.4,2.7v4.1h1v-4.3
	C135,106.2,134.1,104.7,131.8,104.6 M169.2,111.5v-6.6h-1v1.5c-0.4-0.9-1.6-1.8-3-1.8c-2.3,0-3.9,1.7-3.9,4c0,2.2,1.6,3.9,3.9,3.9
	c1.5,0,2.5-0.7,3-1.8v1c0,1.9-1.5,3-2.9,3c-0.5,0-1.1-0.2-1.7-0.5c-0.4-0.3-0.7-0.7-0.9-1h-1.2c0.5,1.4,1.8,2.4,3.7,2.4
	c1,0,2.1-0.4,2.8-1.2C168.7,113.8,169.2,112.9,169.2,111.5 M167.4,110.7c-0.5,0.5-1.3,0.9-2.1,0.9c-1.9,0-3-1.5-3-3v0
	c0-1.8,1.3-3,3-3c1.1,0,1.8,0.4,2.3,1c0.5,0.6,0.7,1.3,0.7,2C168.2,109.4,167.9,110.2,167.4,110.7 M6.2,103.6l6.1,8.7h1.1V102h-1.1
	l0,8.6l-6-8.6H5.1v10.3h1.1L6.2,103.6z M22.4,110.1h-1.1c-0.5,1-1.4,1.5-2.6,1.5c-1.3,0-2.9-0.9-2.9-2.8h6.8
	c0.1-1.2-0.3-2.4-1.2-3.2c-0.7-0.7-1.7-1.1-2.7-1.1c-2.2,0-3.9,1.8-3.9,4c0,1.9,1.4,3.9,4,3.9c0.8,0,1.5-0.2,2.1-0.6
	C21.5,111.5,22,110.9,22.4,110.1 M18.7,105.5c1.5,0,2.8,1.2,2.9,2.6h-5.8C15.9,106.7,17.1,105.5,18.7,105.5 M158.8,108.3v4.1h1v-4.3
	c0-1.8-0.8-3.4-3.2-3.4c-1.3,0-2.4,0.6-2.8,1.5c0-0.5,0-0.9,0-1.3h-1v7.5h1v-4.2c0-1.6,0.9-2.5,2.4-2.5
	C158.1,105.6,158.8,106.7,158.8,108.3 M105.4,102l-3.4,8.8l-3.4-8.8h-1.2l4.1,10.3h1.1l4.1-10.3H105.4z M150.7,104.8h-1v7.5h1V104.8
	z M109.8,111.6c-1.3,0-2.9-0.9-2.9-2.8h6.8c0.1-1.2-0.3-2.4-1.2-3.2c-0.7-0.7-1.7-1.1-2.7-1.1c-2.2,0-3.9,1.8-3.9,4
	c0,1.9,1.4,3.9,4,3.9c0.8,0,1.5-0.2,2.1-0.6c0.6-0.4,1.2-1,1.5-1.8h-1.1C111.9,111.1,110.9,111.6,109.8,111.6 M109.8,105.5
	c1.5,0,2.8,1.2,2.9,2.6h-5.8C107,106.7,108.2,105.5,109.8,105.5 M48.7,102h-1v10.3h1V102z M43.8,108.2c0-1.7,0.8-2.6,2.3-2.6h0.1v-1
	c-0.9,0-1.9,0.3-2.4,1.4v-1.2h-1v7.5h1V108.2z M122.8,111.6c-1.3,0-2.9-0.9-2.9-2.8h6.8c0.1-1.2-0.3-2.4-1.2-3.2
	c-0.7-0.7-1.7-1.1-2.7-1.1c-2.2,0-3.9,1.8-3.9,4c0,1.9,1.4,3.9,4,3.9c0.8,0,1.5-0.2,2.1-0.6c0.6-0.4,1.2-1,1.5-1.8h-1.1
	C124.9,111.1,123.9,111.6,122.8,111.6 M122.8,105.5c1.5,0,2.8,1.2,2.9,2.6h-5.8C120,106.7,121.2,105.5,122.8,105.5 M53.2,124.1v-1.2
	h-1v7.5h1v-4.1c0-1.7,0.8-2.6,2.3-2.6h0.1v-1C54.7,122.7,53.8,123,53.2,124.1 M37.9,120.1h-2.7v10.3h1.2v-4.1H38
	c1.3,0,2-0.2,2.7-0.7c0.6-0.5,1.1-1.5,1.1-2.5c0-1-0.4-1.9-1.1-2.4C40,120.2,39.4,120.1,37.9,120.1 M39.9,124.9
	c-0.5,0.3-1,0.4-1.9,0.4h-1.6v-4.2H38c0.9,0,1.4,0.1,1.9,0.4c0.5,0.3,0.8,0.9,0.8,1.7C40.7,123.9,40.4,124.6,39.9,124.9 M7.5,129.1
	l-2.4-6.2H4l3,7.5H8l3-7.5H9.9L7.5,129.1z M49.4,124.4c-0.4-0.9-1.5-1.8-3.1-1.8c-2.3,0-3.9,1.8-3.9,4c0,2.1,1.4,4,3.9,4
	c1.3,0,2.5-0.6,3.1-1.8v1.5h1v-7.5h-1V124.4z M49.1,127.8c-0.4,1.1-1.4,1.8-2.7,1.8c-2.1,0-3-1.6-3-3v0c0-1.7,1.3-3,3-3
	c1.3,0,2.3,0.8,2.7,1.8c0.2,0.4,0.3,0.8,0.2,1.2C49.4,127,49.3,127.4,49.1,127.8 M25.2,122.7c-1.3,0-2.4,0.6-2.8,1.5
	c0-0.5,0-0.9,0-1.3h-1v7.5h1v-4.2c0-1.6,0.9-2.5,2.4-2.5c1.7,0,2.4,1.1,2.4,2.7v4.1h1v-4.3C28.3,124.3,27.5,122.7,25.2,122.7
	 M18.2,124.4c-0.4-0.9-1.5-1.8-3.1-1.8c-2.3,0-3.9,1.8-3.9,4c0,2.1,1.5,4,3.9,4c1.3,0,2.5-0.6,3.1-1.8v1.5h1v-7.5h-1V124.4z
	 M18,127.8c-0.4,1.1-1.4,1.8-2.7,1.8c-2.1,0-3-1.6-3-3v0c0-1.7,1.3-3,3-3c1.3,0,2.3,0.8,2.7,1.8c0.2,0.4,0.3,0.8,0.2,1.2
	C18.3,127,18.2,127.4,18,127.8 M73.9,121.5h1v-1.4h-1V121.5z M181.2,124.4c-0.4-0.9-1.5-1.8-3.1-1.8c-2.3,0-3.9,1.8-3.9,4
	c0,2.1,1.5,4,3.9,4c1.3,0,2.5-0.6,3.1-1.8v1.5h1v-7.5h-1V124.4z M181,127.8c-0.4,1.1-1.4,1.8-2.7,1.8c-2.1,0-3-1.6-3-3v0
	c0-1.7,1.3-3,3-3c1.3,0,2.3,0.8,2.7,1.8c0.2,0.4,0.3,0.8,0.2,1.2C181.2,127,181.1,127.4,181,127.8 M169.6,122.7
	c-1.1,0-2.2,0.4-2.7,1.4v-4h-1v10.3h1v-4.3c0-0.7,0.2-1.3,0.6-1.7c0.4-0.4,1-0.7,1.8-0.7c0.9,0,1.5,0.3,1.9,0.8
	c0.4,0.5,0.5,1.2,0.5,2v4h1v-4c0-1.1-0.2-2-0.7-2.6C171.6,123,170.8,122.7,169.6,122.7 M198.2,122.7c-1.4,0-2.5,0.7-3.1,1.8v-1.6h-1
	v10.3h1v-4.4c0.3,0.8,1.4,1.7,3.1,1.7c2.3,0,3.8-1.8,3.8-3.9C202,124.7,200.7,122.7,198.2,122.7 M201,126.6c0,1.7-1.3,3-3,3
	c-0.8,0-1.6-0.3-2.1-0.9c-0.5-0.5-0.9-1.3-0.9-2.1c0-0.8,0.3-1.6,0.8-2.1c0.5-0.5,1.3-0.9,2.1-0.9C200,123.6,201,125.2,201,126.6
	L201,126.6z M188.5,122.7c-1.4,0-2.5,0.7-3.1,1.8v-1.6h-1v10.3h1v-4.4c0.3,0.8,1.4,1.7,3.1,1.7c2.3,0,3.8-1.8,3.8-3.9
	C192.3,124.7,191,122.7,188.5,122.7 M191.3,126.6c0,1.7-1.3,3-3,3c-0.8,0-1.6-0.3-2.1-0.9c-0.5-0.5-0.9-1.3-0.9-2.1
	c0-0.8,0.3-1.6,0.8-2.1c0.5-0.5,1.3-0.9,2.1-0.9C190.3,123.6,191.3,125.2,191.3,126.6L191.3,126.6z M153.1,126
	c-0.9-0.3-1.4-0.6-1.5-1.3c0-0.7,0.5-1.2,1.3-1.2c0.8,0,1.3,0.4,1.3,1.2h1c-0.1-1.5-1.2-2.1-2.3-2.1c-1.3,0-2.3,0.8-2.3,2.1
	c0,1.2,0.9,1.6,1.9,1.9c1.3,0.4,1.9,0.7,1.9,1.6c0,0.8-0.6,1.4-1.4,1.4c-0.8,0-1.5-0.5-1.6-1.5h-1c0,1.6,1.4,2.3,2.6,2.3
	c1.4,0,2.5-1,2.5-2.4C155.4,126.6,154.2,126.3,153.1,126 M160.6,123.6c1.1,0,2.2,0.6,2.7,1.9h1.1c-0.5-1.8-2.1-2.8-3.8-2.8
	c-2.3,0-4,1.7-4,4c0,2,1.5,4,4,4c1.8,0,3.3-1.2,3.7-2.7h-1.1c-0.3,0.9-1.3,1.8-2.7,1.8c-1.6,0-3-1.2-3-3c0-0.9,0.4-1.7,0.8-2.2
	C159.1,123.9,159.7,123.6,160.6,123.6 M207.2,121.5h1v-1.4h-1V121.5z M216.7,123.7c-0.7-0.7-1.7-1.1-2.7-1.1c-2.2,0-3.9,1.8-3.9,4
	c0,1.9,1.4,3.9,4,3.9c0.8,0,1.5-0.2,2.1-0.6c0.6-0.4,1.2-1,1.5-1.8h-1.1c-0.5,1-1.4,1.5-2.6,1.5c-1.3,0-2.9-0.9-2.9-2.8h6.8
	C218,125.7,217.6,124.6,216.7,123.7 M214,123.5c1.6,0,2.8,1.2,2.9,2.6H211C211.1,124.7,212.3,123.5,214,123.5 M203.7,130.4h1v-7.5
	h-1V130.4z M147.7,120.1h-1v2.8h-1.5v0.8h1.5v6.7h1v-6.7h1.6v-0.8h-1.6V120.1z M223.2,122.7c-1.3,0-2.4,0.6-2.8,1.5
	c0-0.5,0-0.9,0-1.3h-1v7.5h1v-4.2c0-1.6,0.9-2.5,2.4-2.5c1.7,0,2.4,1.1,2.4,2.7v4.1h1v-4.3C226.4,124.3,225.5,122.7,223.2,122.7
	 M203.7,121.5h1v-1.4h-1V121.5z M207.2,130.3c0,1.1-0.1,2-1.2,2.1c-0.1,0-0.1,0-0.2,0v0.9c0.1,0,0.2,0,0.3,0c2-0.2,2.1-1.7,2.1-3
	v-7.4h-1V130.3z M98,120.1h-1v2.8h-1.5v0.8H97v6.7h1v-6.7h1.6v-0.8H98V120.1z M73.9,130.4h1v-7.5h-1V130.4z M142.6,124.4
	c-0.4-0.9-1.5-1.8-3.1-1.8c-2.3,0-3.9,1.8-3.9,4c0,2.1,1.4,4,3.9,4c1.3,0,2.5-0.6,3.1-1.8v1.5h1v-7.5h-1V124.4z M142.4,127.8
	c-0.4,1.1-1.4,1.8-2.7,1.8c-2.1,0-3-1.6-3-3v0c0-1.7,1.3-3,3-3c1.3,0,2.3,0.8,2.7,1.8c0.2,0.4,0.3,0.8,0.2,1.2
	C142.7,127,142.6,127.4,142.4,127.8 M68.5,123.6c1.1,0,2.2,0.6,2.7,1.9h1.1c-0.5-1.8-2.1-2.8-3.8-2.8c-2.3,0-4,1.7-4,4
	c0,2,1.5,4,4,4c1.8,0,3.3-1.2,3.8-2.7h-1.1c-0.3,0.9-1.3,1.8-2.7,1.8c-1.6,0-3-1.2-3-3c0-0.9,0.3-1.7,0.8-2.2
	C67,123.9,67.6,123.6,68.5,123.6 M81.2,122.7c-1.4,0-2.5,0.7-3.1,1.8v-1.6h-1v10.3h1v-4.4c0.3,0.8,1.4,1.7,3.1,1.7
	c2.3,0,3.8-1.8,3.8-3.9C85,124.7,83.7,122.7,81.2,122.7 M84,126.6c0,1.7-1.3,3-3,3c-0.8,0-1.6-0.3-2.1-0.9c-0.5-0.5-0.9-1.3-0.9-2.1
	c0-0.8,0.3-1.6,0.8-2.1c0.5-0.5,1.3-0.9,2.1-0.9C83,123.6,84,125.2,84,126.6L84,126.6z M62.1,121.5h1v-1.4h-1V121.5z M62.1,130.4h1
	v-7.5h-1V130.4z M93.2,124.4c-0.4-0.9-1.5-1.8-3.1-1.8c-2.3,0-3.9,1.8-3.9,4c0,2.1,1.4,4,3.9,4c1.3,0,2.5-0.6,3.1-1.8v1.5h1v-7.5h-1
	V124.4z M93,127.8c-0.4,1.1-1.4,1.8-2.7,1.8c-2.1,0-3-1.6-3-3v0c0-1.7,1.3-3,3-3c1.3,0,2.3,0.8,2.7,1.8c0.2,0.4,0.3,0.8,0.2,1.2
	C93.3,127,93.2,127.4,93,127.8 M121.5,122.7c-0.8,0-1.6,0.3-2.1,0.8c-0.3,0.3-0.4,0.6-0.5,0.8c0-0.1-0.3-0.6-0.5-0.8
	c-0.5-0.6-1.3-0.9-2-0.9c-0.8,0-1.9,0.4-2.4,1.4v-1.2h-1v7.5h1v-4.2c0-0.8,0.2-1.4,0.5-1.8c0.3-0.4,0.9-0.8,1.6-0.8
	c0.8,0,1.3,0.3,1.6,0.8c0.3,0.5,0.4,0.9,0.4,1.8v4.2h1v-4.2c0-0.8,0.1-1.3,0.4-1.8c0.3-0.5,1-0.8,1.6-0.8c0.7,0,1.2,0.2,1.5,0.6
	c0.4,0.5,0.6,1.2,0.6,2v4.1h1v-4.2c0-1.3-0.2-2.1-0.8-2.8C123,122.9,122.3,122.7,121.5,122.7 M133,124.4c-0.4-0.9-1.5-1.8-3.1-1.8
	c-2.3,0-3.9,1.8-3.9,4c0,2.1,1.4,4,3.9,4c1.3,0,2.5-0.6,3.1-1.8v1.5h1v-7.5h-1V124.4z M132.7,127.8c-0.4,1.1-1.4,1.8-2.7,1.8
	c-2.1,0-3-1.6-3-3v0c0-1.7,1.3-3,3-3c1.3,0,2.3,0.8,2.7,1.8c0.2,0.4,0.3,0.8,0.2,1.2C133,127,132.9,127.4,132.7,127.8 M110.2,123.7
	c-0.7-0.7-1.7-1.1-2.7-1.1c-2.2,0-3.9,1.8-3.9,4c0,1.9,1.4,3.9,4,3.9c0.8,0,1.5-0.2,2.1-0.6c0.6-0.4,1.2-1,1.5-1.8h-1.1
	c-0.5,1-1.4,1.5-2.6,1.5c-1.3,0-2.9-0.9-2.9-2.8h6.8C111.5,125.7,111.1,124.6,110.2,123.7 M107.5,123.5c1.5,0,2.8,1.2,2.9,2.6h-5.8
	C104.7,124.7,105.9,123.5,107.5,123.5 M59.2,120.1h-1v2.8h-1.5v0.8h1.5v6.7h1v-6.7h1.6v-0.8h-1.6V120.1z M100.9,121.5h1v-1.4h-1
	V121.5z M100.9,130.4h1v-7.5h-1V130.4z"/>
</svg>
